<?xml version="1.0" encoding="utf-8"?>
<!-- Generator: Adobe Illustrator 24.3.0, SVG Export Plug-In . SVG Version: 6.00 Build 0)  -->
<svg version="1.1" id="Capa_1" xmlns="http://www.w3.org/2000/svg" xmlns:xlink="http://www.w3.org/1999/xlink" x="0px" y="0px"
	 viewBox="0 0 412.9 391.8" style="enable-background:new 0 0 412.9 391.8;" xml:space="preserve">
<style type="text/css">
	.st0{fill:#99529B;}
	.st1{fill:#C6C6C6;}
	.st2{fill:#DADADA;}
	.st3{fill:#9F6CA3;}
	.st4{fill:#259CC6;}
	.st5{fill:#9D9D9C;}
	.st6{fill:#FFFFFF;}
	.st7{fill:#F39343;}
	.st8{fill:#BB7334;}
	.st9{fill:#D6EEFD;}
	.st10{fill:#F8B056;}
	.st11{fill:#DAAB2A;}
	.st12{fill:none;stroke:#454F56;stroke-width:1.3278;stroke-miterlimit:10;}
	.st13{fill:#DDA076;}
	.st14{fill:#0D0E22;}
	.st15{fill:#1D2342;}
	.st16{fill:#F9BB8D;}
	.st17{fill:#12142B;}
	.st18{fill:#1F191E;}
	.st19{fill:#352E35;}
	.st20{fill:#F0F0F0;}
	.st21{fill:#1A1418;}
	.st22{fill:#A6C1D1;}
</style>
<g>
	<path class="st0" d="M77.6,350h137.5c32-22,53-58.8,53-100.5c0-67.3-54.5-121.8-121.8-121.8c-67.3,0-121.8,54.5-121.8,121.8
		C24.6,291.3,45.6,328.1,77.6,350z"/>
	<path class="st0" d="M186.2,350h137.5c32-22,53-58.8,53-100.5c0-67.3-54.5-121.8-121.8-121.8c-67.3,0-121.8,54.5-121.8,121.8
		C133.1,291.3,154.2,328.1,186.2,350z"/>
	<path class="st0" d="M170.6,214.7h131.2c30.5-18.2,50.6-48.9,50.6-83.6c0-55.9-52-101.3-116.2-101.3S120,75.2,120,131.1
		C120,165.9,140,196.5,170.6,214.7z"/>
	<g>
		<path class="st1" d="M386.3,307c0,7.8-6.3,14.1-14,14.1H112.2c-7.7,0-14-6.3-14-14.1V161.6c0-7.8,6.3-14.1,14-14.1h260.1
			c7.7,0,14,6.3,14,14.1V307z"/>
		<path class="st2" d="M382.8,292c0,6.8-6.1,12.3-13.7,12.3H115c-7.6,0-13.7-5.5-13.7-12.3V165c0-6.8,6.1-12.3,13.7-12.3h254.2
			c7.5,0,13.7,5.5,13.7,12.3L382.8,292L382.8,292z"/>
		<path class="st3" d="M379.3,284.1V172.9c0-6.9-6-12.4-13.3-12.4H118.5c-7.4,0-13.3,5.6-13.3,12.4v111.2L379.3,284.1L379.3,284.1z"
			/>
		<path class="st4" d="M246.1,154.2c0,2.2-1.7,3.9-3.9,3.9s-3.9-1.8-3.9-3.9s1.7-3.9,3.9-3.9C244.4,150.3,246.1,152,246.1,154.2z"/>
		<rect x="223.8" y="321.1" class="st5" width="36.9" height="24.2"/>
		<path class="st2" d="M297.7,350c-0.4-5.3-3.4-9.4-7.2-9.4h-96.6c-3.8,0-6.8,4.1-7.2,9.4H297.7z"/>
		<rect x="113.6" y="168.5" class="st6" width="228.5" height="93.5"/>
	</g>
	<g>
		<polygon class="st7" points="291.2,180 188.2,180 239.7,136 		"/>
		<rect x="188.2" y="180" class="st8" width="102.9" height="66"/>
		<rect x="205" y="149.7" class="st9" width="69.4" height="96.3"/>
		<rect x="207.3" y="153.7" class="st6" width="57.6" height="79.9"/>
		<polygon class="st7" points="291.2,246.1 188.2,246.1 188.2,180 239.7,217 291.2,180 		"/>
		<polygon class="st10" points="291.2,246.1 188.2,246.1 239.7,202 		"/>
		<path class="st11" d="M223.9,163.5c0,3.1-2.5,5.5-5.5,5.5c-3.1,0-5.5-2.5-5.5-5.5s2.5-5.5,5.5-5.5S223.9,160.5,223.9,163.5z"/>
		<path class="st12" d="M226.7,159.2c1.5,0,1.5,1.1,3,1.1c1.5,0,1.5-1.1,3-1.1c1.5,0,1.5,1.1,3,1.1c1.5,0,1.5-1.1,3-1.1
			s1.5,1.1,3,1.1c1.5,0,1.5-1.1,3-1.1"/>
		<path class="st12" d="M226.7,163c1.5,0,1.5,1.1,3,1.1c1.5,0,1.5-1.1,3-1.1c1.5,0,1.5,1.1,3,1.1c1.5,0,1.5-1.1,3-1.1s1.5,1.1,3,1.1
			c1.5,0,1.5-1.1,3-1.1"/>
		<path class="st12" d="M226.7,166.8c1.5,0,1.5,1.1,3,1.1c1.5,0,1.5-1.1,3-1.1c1.5,0,1.5,1.1,3,1.1c1.5,0,1.5-1.1,3-1.1
			s1.5,1.1,3,1.1c1.5,0,1.5-1.1,3-1.1"/>
	</g>
	<g>
		<g>
			<path class="st13" d="M331.4,206.1c0,0-39.1,33.9-49.7,41.9c-4.4,3.4-54.7,26.5-54.7,26.5s-4,0.1-6.5,0.6
				c-1.7,0.3-8.5,1.5-10.6,2.3s-1.2,7.4,1,8.3c2.2,0.8,9.8,0.3,9.8,0.3s5,0.8,6.4-0.3c2-1.6,3.4-4.3,3.4-4.3s45.6-14.6,60.1-23.4
				c14-8.5,49.3-35.4,49.3-35.4L331.4,206.1z"/>
			<path class="st3" d="M320.5,239.2l17.3-22.4c0,0,17.4-20.7-0.8-18.1c-10,1.4-26.8,23.7-26.8,23.7L320.5,239.2z"/>
			<path class="st14" d="M380.9,350c0.4-4.1,0.4-8.3-0.2-12.6c-13.2-0.7-55.4-0.3-55.4-0.3l-1.7,12.8H380.9z"/>
			<path class="st15" d="M384.3,350c-0.2-4.4-0.7-8.8-1.5-13.3c-13.2,0-59.5,2.4-59.5,2.4l1.6,11H384.3z"/>
			<path class="st0" d="M382.4,336.7l-59.5,2.4c0,0,0.2-94.9,3-113.6c2.6-17.8,11.2-26.7,11.2-26.7l16.5-2.2c0,0,16.1,6.5,21.9,34.2
				c3.4,16,3,49.2,3.8,74.2C380,322.9,382.4,336.7,382.4,336.7z"/>
			<path class="st16" d="M337.1,198.8l16.5-2.2l-0.5-5.2c0,0,9.2-5.5,12.9-12.7c3.9-7.8,6.5-23.5,8-32.9c1.9-11.9-9.4-23.4-9.4-23.4
				l-30,0.8c0,0-5,2.2-6.6,12.4c-1,6.3,1.8,16,1.8,16s-2,6.6-6.5,11.6c-1.5,1.6,3.1,3.6,3.1,3.6s0.5,13.6,2.2,17.6
				c1.8,4,8.6,7.9,8.6,7.9L337.1,198.8z"/>
			<path class="st14" d="M326.3,166.7c0,0.3,0.1,2.2,0.2,4.7c0.1,1.2,0.2,2.5,0.3,3.9c0.4,3.5,0.9,7.1,1.7,8.9
				c1.8,4,8.6,7.9,8.6,7.9s15.7-4.7,18.9-8.8c3.1-4,3.4-21.8,3.4-21.8s-3.6-5.5-4.7-1.1c-1.1,4.4,1.7,14.4-3.9,19
				c-2.4,2-6.8-9.8-14.3-11.9C330,165.8,326.3,166.7,326.3,166.7z"/>
			<path class="st16" d="M326.5,171.5c0.1,1.2,0.2,2.5,0.3,3.9l1.2-0.3c0,0,2.4,5.8,6.7,6.4c2.7,0.4,5.2-0.7,5.1-3.6
				C339.8,171.5,328.3,171.4,326.5,171.5z"/>
			<path class="st14" d="M365.8,107.1c6.9,2.7,6.5,7.8,6.5,7.8s3.4,1.2,7.4,4.7c5.6,4.8,2.1,25.2-0.9,43.6
				c-3.7,22.7-17.8,21.9-17.8,21.9l-1.3-14.6c0,0,2.4,1.1,5.5-1.7c1.5-1.4,4.7-11.2,1.2-11.8c-8.3-1.4-6.3,8.6-10,7.2
				s-1.7-3-0.3-10.3c2.9-13.2-2.4-16-2.4-16s-15.4,1-24.3-1.8c-9.1-2.8-13.1-18.9-3.2-21.4C337.4,111.8,358.9,104.3,365.8,107.1z"/>
			<path class="st3" d="M350.6,220.6c0,0,13.3,32.7,17.9,32.3c11-1,13.8-12.1,13.8-12.1c-11.1-7.2-13.4-16.4-20.5-20.1
				C354,230.4,350.6,220.6,350.6,220.6z"/>
			<path class="st16" d="M365.5,238.4c8.3,12.7,15,29.5,15.9,38.7S363,323,363,323s-5.1,1.6-6.4,3.9c-0.9,1.5-0.7,6.6,0.6,8.1
				c1.5,1.7,8.8,1.2,9.6,0.9c2.2-0.9,0.6-4.2,0.6-4.2s4-1.2,4.1-3c0-2.6-1-3.9-1-3.9s27.2-38.5,25.8-50.1
				c-1.5-11.6-7-29.9-12.6-41.4C376.4,218.7,355.3,225.5,365.5,238.4z"/>
			<path class="st0" d="M388.8,236.9c0,0-14.1-22.9-23.2-31.6c-9.2-8.8-23.8-0.7-14.9,15.3c8.5,15.5,17.9,28.9,17.9,28.9
				L388.8,236.9z"/>
		</g>
		<g>
			<path class="st16" d="M123.2,205.2c0,0,27.7,27.3,37,25.3c33.7-7.2,49.7-30,49.7-30s1.7-3.6,3.2-5.7c1-1.5,4.8-7.2,6.4-8.8
				c1.6-1.6,7.3,1.9,7.2,4.3c-0.1,2.4-3.7,9.1-3.7,9.1s-1.3,4.9-2.8,5.7c-2.3,1.2-5.3,1.3-5.3,1.3s-24.4,23.5-52.5,35.9
				c-7.7,3.4-34.3-12.6-34.3-12.6L123.2,205.2z"/>
			<path class="st17" d="M211.9,209.1c0,0-27.8,27.7-51.4,35.2c-15.1,4.8-38.2-27.8-38.2-27.8s-14.4-15.7,1.7-16.3
				c7.2-0.3,27.7,26.8,34.8,27.9c13.5,2.1,49.2-25.2,49.2-25.2L211.9,209.1z"/>
			<path class="st17" d="M129.6,314.1c7.1-25.5,12.3-55.2,9.9-82.9c-2.3-26.9-18.3-32.4-18.3-32.4l-11.3,3.1c0,0-12.9,11.8-8.5,39.7
				c1.2,7.5,5.6,46.2,5.6,46.2S119.4,351,129.6,314.1z"/>
			<path class="st18" d="M132,350l3-9.7c0,0-39.8-13.8-52.6-17.4c-4.3,8.6-6.2,17.8-6.9,27H132z"/>
			<g>
				<path class="st19" d="M134.9,350l0.5-11c0,0-46.2-2.4-59.5-2.4c-0.9,4.5-1.2,8.9-1.1,13.3H134.9z"/>
			</g>
			<path class="st20" d="M75.9,336.7l59.5,2.4c0,0-0.2-94.9-3-113.6c-2.6-17.8-11.2-26.7-11.2-26.7l-16.5-2.2c0,0-16.2,6.5-22,34.1
				C79.4,246.8,75.9,336.7,75.9,336.7z"/>
			<path class="st15" d="M53.4,350c20.4-15.8,55.3-48.4,68-93.6c7.3-26-3.2-57.7-3.2-57.7l-13.4-2.2c0,0-16.2,6.5-22,34.1
				c-1.6,7.4-11.1,45.2-11.1,45.2s-26.8,28.6-33.4,41.7c-3.9,7.7-3.1,22.4-1.9,32.5L53.4,350L53.4,350z"/>
			<path class="st16" d="M121.2,198.8l-16.5-2.2l0.6-5.7c0,0-8.6-6.4-11.5-13.9c-3.1-8.2-4.1-24-4.6-33.6c-0.7-12,7.1-22.3,7.1-22.3
				l34.4,3.8c0,0,4.2,5,4,15.3c-0.2,10.3-2.6,4.5-2.3,12.2c0.3,7.6,5.4,11.3,5.6,13.4c0.3,2.2-3.5,3.3-3.5,3.3s0.2,16.2-3.6,20.4
				c-3.8,4.3-9.7,3.8-9.7,3.8L121.2,198.8L121.2,198.8z"/>
			<path class="st21" d="M96.5,105.8c-7.1,2-6.1,8.9-6.1,8.9s-4.6-0.9-9.1,2.2c-6.1,4.2-7.8,27.4-3,43.9c8,27.3,18.6,22.5,18.6,22.5
				l3.9-12.7c0,0-4.9,3.1-7.4-4c-2.6-7.1-3.6-14.6,2.2-15.1c5.8-0.6,6.2,10.2,10,9.1c3.8-1.1-4.1-7.1-4.8-14.6
				c-0.3-21.4,9.3-13.5,9.3-13.5s14.8,6.7,24.1,5.8c9.3-0.9,9.4-17.7,1.1-25.4C127.2,105.1,103.6,103.8,96.5,105.8z"/>
			<path class="st16" d="M126.1,233c28.4,45.8,78.3,43.6,78.3,43.6s3.9-1,6.4-1.2c1.8-0.1,8.6-0.9,10.8-0.7c2.2,0.2,3.2,6.8,1.2,8.2
				c-1.9,1.4-9.4,2.9-9.4,2.9s-4.6,2.1-6.2,1.5c-2.4-1-4.4-3.2-4.4-3.2s-56.8,4.5-86.3-31.9C106.5,239.6,118.7,218.3,126.1,233z"/>
			<path class="st22" d="M117.6,267.8c0,0-10.5-11.2-19.1-39.8c-3.2-10.6,17.4-20.2,17.4-20.2s8,7.2,5.7,20.2
				C126.7,245.8,117.6,267.8,117.6,267.8z"/>
			<path class="st15" d="M203,284.1c0,0-72.2,12.5-104.5-58.9c-5.3-11.6,11.2-30.3,17.8-13.2c23.3,60,85.2,64.5,85.2,64.5L203,284.1
				z"/>
		</g>
	</g>
</g>
</svg>
